<svg width="77" height="24" viewBox="0 0 77 24" xmlns="http://www.w3.org/2000/svg" class="ovo-main-logo">
<g fill="#06B3BA" fill-rule="evenodd">
<path d="M21.186 20.244c-2.321 2.234-5.435 3.445-8.798 3.445-3.408 0-6.522-1.211-8.844-3.445A11.613 11.613 0 0 1 0 11.856c0-3.2 1.28-6.212 3.556-8.39C5.876 1.234 8.99.023 12.399.023c3.363 0 6.477 1.211 8.799 3.445 2.276 2.177 3.555 5.189 3.555 8.389 0 3.2-1.29 6.2-3.567 8.388M12.4 3.856c-4.45 0-7.802 3.444-7.802 8 0 4.555 3.363 8 7.802 8 4.394 0 7.757-3.445 7.757-8 0-4.556-3.363-8-7.757-8M50.424 2.789l-9.535 21.178-.543-.1c-2.718-.49-3.261-1.167-4.541-3.923l-7.122-15.5H26.01V.667h10.123v3.777H33.71l5.73 12.845 5.548-12.845h-2.966V.667h8.402v2.122zM73.444 20.244c-2.32 2.234-5.435 3.445-8.798 3.445-3.408 0-6.522-1.211-8.844-3.445-2.276-2.177-3.555-5.188-3.555-8.388s1.28-6.212 3.555-8.39C58.124 1.234 61.238.023 64.646.023c3.363 0 6.477 1.211 8.798 3.445C75.72 5.644 77 8.656 77 11.856c0 3.2-1.28 6.2-3.556 8.388M64.646 3.856c-4.45 0-7.802 3.444-7.802 8 0 4.555 3.363 8 7.802 8 4.394 0 7.757-3.445 7.757-8 0-4.556-3.352-8-7.757-8"></path>
</g>
</svg>
